# xmcd
#
# Track frame offsets:
#	150
#	20375
#	34822
#	55120
#	71459
#	88211
#	100658
#	119177
#	140890
#	154381
#	169159
#	181719
#	198386
#	216554
#
# Disc length: 3215 seconds
#
# Revision: 0
# Processed by: cddbd v1.4PL0 Copyright (c) Steve Scherf et al.
# Submitted via: dBpowerAMP V4.0
#
DISCID=d10c8d0e
DTITLE=Diamond Jim Greene - Coach House Blues
DYEAR=1998
DGENRE=Blues
TTITLE0=Murdering Blues
TTITLE1=Through Train Blues
TTITLE2=Watching You
TTITLE3=TV Momma
TTITLE4=Ramblin'
TTITLE5=Talkin' to Myself
TTITLE6=Blind Man
TTITLE7=I Don't Get You
TTITLE8=2 and 1 Blues
TTITLE9=Statesboro Blues
TTITLE10=Full Moon Blues
TTITLE11=Home for Christmas
TTITLE12=I Wonder
TTITLE13=Medley: Stom Down Rider, You Done Told Everybody
EXTD=
EXTT0=
EXTT1=
EXTT2=
EXTT3=
EXTT4=
EXTT5=
EXTT6=
EXTT7=
EXTT8=
EXTT9=
EXTT10=
EXTT11=
EXTT12=
EXTT13=
PLAYORDER=
